<svg xmlns="http://www.w3.org/2000/svg" viewBox="0 0 200 200">
  <!-- Circular Border -->
  <circle cx="100" cy="100" r="90" fill="none" stroke="#2c3e50" stroke-width="2"/>
  
  <!-- Point Cloud in center -->
  <g transform="translate(100, 100) scale(0.75)">
    <!-- Points -->
    <g fill="#3498db" opacity="0.9">
      <circle cx="0" cy="0" r="3"/>
      <circle cx="15" cy="-15" r="3"/>
      <circle cx="-10" cy="-20" r="3"/>
      <circle cx="20" cy="5" r="3"/>
      <circle cx="-15" cy="10" r="3"/>
      <circle cx="5" cy="25" r="3"/>
      <circle cx="-20" cy="-5" r="3"/>
      <circle cx="10" cy="-25" r="3"/>
      <circle cx="15" cy="20" r="3"/>
      <circle cx="-25" cy="15" r="3"/>
      <circle cx="-5" cy="-15" r="3"/>
      <circle cx="25" cy="-10" r="3"/>
      <circle cx="-20" cy="20" r="3"/>
      <circle cx="25" cy="25" r="3"/>
      <circle cx="-25" cy="-25" r="3"/>
      <circle cx="5" cy="-5" r="3"/>
      <circle cx="-10" cy="5" r="3"/>
      <circle cx="20" cy="-20" r="3"/>
    </g>
  </g>
  
  <!-- First Mamba (Green) -->
  <g transform="translate(100, 100)">
    <path d="M-10,-10 C-30,-30 -60,-45 -70,-20 C-80,5 -45,35 -25,30 C-5,25 5,10 20,20 C35,30 50,20 60,5" 
          fill="none" stroke="#2ecc71" stroke-width="7" stroke-linecap="round"/>
    
    <!-- First Snake Head -->
    <g transform="translate(60, 5) rotate(-30)">
      <path d="M0,0 L12,-4 L12,4 Z" fill="#2ecc71"/>
      <circle cx="7" cy="0" r="1.5" fill="#2c3e50"/>
    </g>
    
    <!-- First Snake Pattern -->
    <path d="M-60,-40 L-65,-35 M-40,0 L-45,5 M-20,25 L-25,30 M10,15 L5,20 M40,15 L35,10" 
          stroke="#1e8449" stroke-width="1.5" stroke-linecap="round"/>
  </g>
  
  <!-- Second Mamba (Purple) -->
  <g transform="translate(100, 100)">
    <path d="M-20,20 C-35,40 -30,60 -5,70 C20,80 45,50 40,30 C35,10 20,0 25,-15 C30,-30 20,-45 5,-55" 
          fill="none" stroke="#9b59b6" stroke-width="7" stroke-linecap="round"/>
    
    <!-- Second Snake Head -->
    <g transform="translate(5, -55) rotate(-100)">
      <path d="M0,0 L12,-4 L12,4 Z" fill="#9b59b6"/>
      <circle cx="7" cy="0" r="1.5" fill="#2c3e50"/>
    </g>
    
    <!-- Second Snake Pattern -->
    <path d="M-25,55 L-20,60 M10,65 L15,70 M35,45 L40,50 M35,15 L40,20 M20,-10 L25,-15" 
          stroke="#8e44ad" stroke-width="1.5" stroke-linecap="round"/>
  </g>
</svg>
